<svg xmlns="http://www.w3.org/2000/svg" viewBox="0 0 18 18">
    <path fill-rule="evenodd" clip-rule="evenodd"
        d="M18 1.8C8.059 1.8 0 9.859 0 19.8c0 7.955 5.158 14.698 12.312 17.082.9.163 1.225-.392 1.225-.872 0-.43-.016-1.566-.024-3.073-5.007 1.088-6.062-2.413-6.062-2.413-.819-2.08-1.999-2.633-1.999-2.633-1.634-1.117.124-1.094.124-1.094 1.806.127 2.757 1.855 2.757 1.855 1.605 2.75 4.213 1.955 5.241 1.494.163-1.162.628-1.955 1.142-2.405-3.995-.455-8.197-1.997-8.197-8.892 0-1.964.701-3.571 1.851-4.829-.185-.455-.803-2.284.176-4.761 0 0 1.51-.483 4.944 1.843A17.225 17.225 0 0118 9.463c1.527.007 3.065.207 4.501.607 3.432-2.326 4.939-1.843 4.939-1.843.98 2.477.363 4.306.178 4.761 1.152 1.258 1.849 2.865 1.849 4.829 0 6.911-4.208 8.432-8.217 8.878.646.556 1.221 1.653 1.221 3.33 0 2.405-.022 4.344-.022 4.934 0 .484.32 1.044 1.232.868C30.846 34.493 36 27.753 36 19.8 36 9.859 27.941 1.8 18 1.8z"
        fill="white" transform="scale(0.5) translate(0, 0)"></path>
</svg>